HIERARCHY
ROOT hip
{
	OFFSET 0.000000 0.000000 0.000000 
	CHANNELS 6 Xposition Yposition Zposition Xrotation Zrotation Yrotation
	JOINT abdomen
	{
		OFFSET 0.000000 3.402643 0.000000 
		CHANNELS 3 Xrotation Zrotation Yrotation
		JOINT chest
		{
			OFFSET 0.000000 8.438565 -0.680529 
			CHANNELS 3 Xrotation Zrotation Yrotation
			JOINT neck
			{
				OFFSET 0.000000 10.207942 -0.272212 
				CHANNELS 3 Xrotation Zrotation Yrotation
				JOINT head
				{
					OFFSET 0.000000 3.130431 0.000000 
					CHANNELS 3 Xrotation Zrotation Yrotation
					End Site
					{
						OFFSET 0.000000 3.130435 0.000000 
					}
				}
			}
			JOINT lCollar
			{
				OFFSET 3.470700 6.669187 -0.816635 
				CHANNELS 3 Yrotation Zrotation Xrotation
				JOINT lShldr
				{
					OFFSET 3.198488 0.000000 0.000000 
					CHANNELS 3 Zrotation Yrotation Xrotation
					JOINT lForeArm
					{
						OFFSET 10.139888 0.000000 0.000000 
						CHANNELS 3 Yrotation Zrotation Xrotation
						JOINT lHand
						{
							OFFSET 8.370511 0.000000 0.000000 
							CHANNELS 3 Zrotation Yrotation Xrotation
							End Site
							{
								OFFSET 4.083176 0.000000 0.000000 
							}
						}
					}
				}
			}
			JOINT rCollar
			{
				OFFSET -3.470700 6.669187 -0.816635 
				CHANNELS 3 Yrotation Zrotation Xrotation
				JOINT rShldr
				{
					OFFSET -3.198488 0.000000 0.000000 
					CHANNELS 3 Zrotation Yrotation Xrotation
					JOINT rForeArm
					{
						OFFSET -10.139888 0.000000 0.000000 
						CHANNELS 3 Yrotation Zrotation Xrotation
						JOINT rHand
						{
							OFFSET -8.370511 0.000000 0.000000 
							CHANNELS 3 Zrotation Yrotation Xrotation
							End Site
							{
								OFFSET -4.083176 0.000000 0.000000 
							}
						}
					}
				}
			}
		}
	}
	JOINT lThigh
	{
		OFFSET 5.308129 -1.633274 1.361059 
		CHANNELS 3 Xrotation Zrotation Yrotation
		JOINT lShin
		{
			OFFSET -2.041588 -20.007561 0.000000 
			CHANNELS 3 Xrotation Zrotation Yrotation
			JOINT lFoot
			{
				OFFSET 0.000000 -19.190928 -1.224953 
				CHANNELS 3 Xrotation Yrotation Zrotation
				End Site
				{
					OFFSET 0.000000 -2.449906 4.627600 
				}
			}
		}
	}
	JOINT rThigh
	{
		OFFSET -5.308129 -1.633274 1.361059 
		CHANNELS 3 Xrotation Zrotation Yrotation
		JOINT rShin
		{
			OFFSET 2.041588 -20.007561 0.000000 
			CHANNELS 3 Xrotation Zrotation Yrotation
			JOINT rFoot
			{
				OFFSET 0.000000 -19.190928 -1.224953 
				CHANNELS 3 Xrotation Yrotation Zrotation
				End Site
				{
					OFFSET 0.000000 -2.449906 4.627600 
				}
			}
		}
	}
}
MOTION
Frames: 13
Frame Time: 0.016667
-0.002040 30.486601 -0.003288 -19.820026 13.759391 39.964993 41.432861 1.459219 -4.730472 1.269753 -0.254609 -4.943505 -6.916032 4.508111 -4.061711 -6.915846 4.488721 -4.059367 -5.865434 3.073203 -3.344493 -75.281349 -1.887718 -8.851756 -66.227699 -13.680227 31.086311 -52.099373 9.919159 26.167070 14.336174 -0.219720 -2.855793 71.189583 1.256118 -8.388957 69.097923 28.458233 14.330425 23.934935 -5.103211 23.038322 -64.022789 13.494713 -7.288014 88.841125 -7.910454 5.865636 -25.266773 -10.775013 -5.089532 -58.464813 -2.508910 -24.441442 73.736855 -21.054358 -14.166474 -9.407205 10.887199 7.016603 
-0.002040 30.486601 -0.003288 -19.820026 13.759391 39.964993 41.442791 1.466571 -4.724045 1.279503 -0.245499 -4.939984 -6.915940 4.498416 -4.060539 -6.915846 4.488721 -4.059367 -5.855879 3.084347 -3.363586 -75.311317 -1.871162 -8.840231 -66.226654 -13.649680 31.091099 -52.085823 9.898024 26.202303 14.365419 -0.218726 -2.845818 71.152046 1.250568 -8.417267 69.156631 28.456644 14.304625 23.935947 -5.117920 23.047712 -64.022789 13.494713 -7.288014 88.841125 -7.910454 5.865636 -25.266773 -10.775013 -5.089532 -58.464813 -2.508910 -24.441442 73.736855 -21.054358 -14.166474 -9.407205 10.887199 7.016603 
-0.002040 30.486601 -0.003288 -19.820026 13.759391 39.964993 41.462486 1.473948 -4.717648 1.299019 -0.236375 -4.946266 -6.906144 4.498508 -4.050007 -6.906052 4.488814 -4.048837 -5.836613 3.104634 -3.382354 -75.360161 -1.865414 -8.830145 -66.227707 -13.624887 31.096987 -52.081390 9.874103 26.238577 14.384914 -0.217250 -2.836016 71.124382 1.237005 -8.434724 69.217049 28.469101 14.262227 23.925430 -5.159582 23.059717 -64.022789 13.494713 -7.288014 88.841125 -7.910454 5.865636 -25.266773 -10.775013 -5.089532 -58.464813 -2.508910 -24.441442 73.736855 -21.054358 -14.166474 -9.407205 10.887199 7.016603 
-0.002040 30.486601 -0.003288 -19.820026 13.759391 39.964993 41.482067 1.491985 -4.713949 1.318521 -0.218163 -4.939207 -6.896257 4.488906 -4.038307 -6.896257 4.488906 -4.038307 -5.817294 3.115192 -3.402123 -75.399254 -1.859102 -8.819907 -66.217278 -13.597664 31.103458 -52.067894 9.852973 26.275492 14.404409 -0.215766 -2.826215 71.116684 1.223430 -8.462461 69.287170 28.480806 14.249827 23.931547 -5.165842 23.049622 -64.022789 13.494713 -7.288014 88.841125 -7.910454 5.865636 -25.266773 -10.775013 -5.089532 -58.464813 -2.508910 -24.441442 73.736855 -21.054358 -14.166474 -9.407205 10.887199 7.016603 
-0.002040 30.486601 -0.003288 -19.820026 13.759391 39.964993 41.491734 1.502674 -4.716680 1.328275 -0.209059 -4.945436 -6.886461 4.488999 -4.027777 -6.886461 4.488999 -4.027777 -5.797975 3.125739 -3.421900 -75.429230 -1.842548 -8.808376 -66.216316 -13.567125 31.108253 -52.059124 9.837810 26.313450 14.394699 -0.239068 -2.840445 71.127609 1.204621 -8.460369 69.348389 28.496042 14.226663 23.928057 -5.189255 23.069626 -64.022789 13.494713 -7.288014 88.841125 -7.910454 5.865636 -25.266773 -10.775013 -5.089532 -58.464813 -2.508910 -24.441442 73.736855 -21.054358 -14.166474 -9.407205 10.887199 7.016603 
-0.002040 30.486601 -0.003288 -19.820026 13.759391 39.964993 41.511158 1.513385 -4.719437 1.347794 -0.199943 -4.951698 -6.876574 4.479395 -4.016082 -6.876574 4.479395 -4.016082 -5.778656 3.136271 -3.441684 -75.468948 -1.826558 -8.796684 -66.205940 -13.539893 31.114725 -52.041573 9.840148 26.351400 14.365464 -0.249530 -2.848005 71.126274 1.199397 -8.420468 69.416916 28.501549 14.180285 23.921349 -5.221919 23.080778 -64.022789 13.494713 -7.288014 88.841125 -7.910454 5.865636 -25.266773 -10.775013 -5.089532 -58.464813 -2.508910 -24.441442 73.736855 -21.054358 -14.166474 -9.407205 10.887199 7.016603 
-0.002040 30.486601 -0.003288 -19.820026 13.759391 39.964993 41.520985 1.531380 -4.715691 1.357534 -0.181754 -4.954346 -6.866779 4.479487 -4.005553 -6.866779 4.479487 -4.005553 -5.759262 3.145813 -3.451760 -75.498299 -1.819683 -8.786297 -66.193542 -13.506896 31.120098 -52.036392 9.841287 26.382988 14.355697 -0.246633 -2.838721 71.106781 1.198294 -8.420087 69.480087 28.501726 14.136831 23.917826 -5.245317 23.100792 -64.022789 13.494713 -7.288014 88.841125 -7.910454 5.865636 -25.266773 -10.775013 -5.089532 -58.464813 -2.508910 -24.441442 73.736855 -21.054358 -14.166474 -9.407205 10.887199 7.016603 
-0.002040 30.486601 -0.003288 -19.820026 13.759391 39.964993 41.540417 1.542081 -4.718437 1.377057 -0.172643 -4.960593 -6.866688 4.469792 -3.994624 -6.866688 4.469792 -3.994624 -5.739911 3.137865 -3.483224 -75.519020 -1.801454 -8.784308 -66.183220 -13.479645 31.126566 -52.018822 9.843595 26.422609 14.345942 -0.253201 -2.827015 71.105713 1.209089 -8.411537 69.535568 28.509970 14.102224 23.919744 -5.274689 23.121346 -64.022789 13.494713 -7.288014 88.841125 -7.910454 5.865636 -25.266773 -10.775013 -5.089532 -58.464813 -2.508910 -24.441442 73.736855 -21.054358 -14.166474 -9.407205 10.887199 7.016603 
-0.002040 30.486601 -0.003288 -19.820026 13.759391 39.964993 41.550358 1.549410 -4.711985 1.386812 -0.163546 -4.957041 -6.866597 4.460097 -3.993460 -6.866597 4.460097 -3.993460 -5.720570 3.157104 -3.492336 -75.567986 -1.787141 -8.763381 -66.180222 -13.444887 31.142193 -52.000126 9.856247 26.453161 14.355718 -0.272594 -2.821992 71.116043 1.199960 -8.410586 69.599106 28.511452 14.068372 23.923883 -5.280109 23.141365 -64.022789 13.494713 -7.288014 88.841125 -7.910454 5.865636 -25.266773 -10.775013 -5.089532 -58.464813 -2.508910 -24.441442 73.736855 -21.054358 -14.166474 -9.407205 10.887199 7.016603 
-0.002040 30.486601 -0.003288 -19.820026 13.759391 39.964993 41.569958 1.567410 -4.708244 1.406322 -0.145354 -4.959694 -6.866597 4.460097 -3.983695 -6.866597 4.460097 -3.983695 -5.701304 3.177305 -3.511180 -75.607086 -1.780832 -8.753138 -66.172081 -13.421855 31.137835 -51.985828 9.860145 26.482038 14.365495 -0.291986 -2.816962 71.126862 1.189717 -8.419326 69.657280 28.507666 14.032785 23.920301 -5.303483 23.161385 -64.022789 13.494713 -7.288014 88.841125 -7.910454 5.865636 -25.266773 -10.775013 -5.089532 -58.464813 -2.508910 -24.441442 73.736855 -21.054358 -14.166474 -9.407205 10.887199 7.016603 
-0.002040 30.486601 -0.003288 -19.820026 13.759391 39.964993 41.579628 1.578080 -4.710955 1.416079 -0.136260 -4.965899 -6.866506 4.450401 -3.972765 -6.866506 4.450401 -3.972765 -5.681909 3.186812 -3.521284 -75.637054 -1.764280 -8.741601 -66.171173 -13.392857 31.154541 -51.962681 9.881509 26.514261 14.385027 -0.311844 -2.811739 71.146843 1.189706 -8.429396 69.715836 28.505289 14.006831 23.930552 -5.315159 23.171314 -64.022789 13.494713 -7.288014 88.841125 -7.910454 5.865636 -25.266773 -10.775013 -5.089532 -58.464813 -2.508910 -24.441442 73.736855 -21.054358 -14.166474 -9.407205 10.887199 7.016603 
-0.002040 30.486601 -0.003288 -19.820026 13.759391 39.964993 41.589298 1.588748 -4.713663 1.425837 -0.127168 -4.972099 -6.866415 4.440705 -3.971601 -6.866415 4.440705 -3.971601 -5.662438 3.195350 -3.521677 -75.676643 -1.756860 -8.741042 -66.172417 -13.368096 31.158186 -51.943932 9.894119 26.543139 14.385041 -0.328337 -2.797424 71.157181 1.180577 -8.428444 69.761375 28.505867 13.992687 23.938528 -5.311590 23.190437 -64.022789 13.494713 -7.288014 88.841125 -7.910454 5.865636 -25.266773 -10.775013 -5.089532 -58.464813 -2.508910 -24.441442 73.736855 -21.054358 -14.166474 -9.407205 10.887199 7.016603 
-0.002040 30.486601 -0.003288 -19.820026 13.759391 39.964993 41.589478 1.596051 -4.707182 1.425829 -0.118084 -4.968512 -6.866415 4.440705 -3.971601 -6.866415 4.440705 -3.971601 -5.662319 3.211902 -3.490602 -75.706490 -1.748876 -8.740339 -66.173676 -13.343340 31.164091 -51.929600 9.897982 26.573687 14.394766 -0.330979 -2.766429 71.177742 1.170886 -8.437372 69.815338 28.501181 13.984298 23.947174 -5.308307 23.199816 -64.022789 13.494713 -7.288014 88.841125 -7.910454 5.865636 -25.266773 -10.775013 -5.089532 -58.464813 -2.508910 -24.441442 73.736855 -21.054358 -14.166474 -9.407205 10.887199 7.016603 
